<svg width="900" height="680" viewBox="0 0 900 680" fill="none" xmlns="http://www.w3.org/2000/svg" role="img" aria-label="Developer illustration">
  <defs>
    <linearGradient id="g1" x1="140" y1="60" x2="780" y2="620" gradientUnits="userSpaceOnUse">
      <stop stop-color="#22D3EE"/>
      <stop offset="0.55" stop-color="#7C3AED"/>
      <stop offset="1" stop-color="#F97316"/>
    </linearGradient>
    <linearGradient id="g2" x1="120" y1="80" x2="820" y2="600" gradientUnits="userSpaceOnUse">
      <stop stop-color="rgba(255,255,255,0.18)"/>
      <stop offset="1" stop-color="rgba(255,255,255,0.06)"/>
    </linearGradient>
    <filter id="shadow" x="-40%" y="-40%" width="180%" height="180%">
      <feDropShadow dx="0" dy="24" stdDeviation="18" flood-color="#000" flood-opacity="0.35"/>
    </filter>
  </defs>

  <!-- Background blob -->
  <path d="M165 287C165 140 284 60 444 60C604 60 740 126 740 273C740 420 636 606 470 606C304 606 165 434 165 287Z" fill="url(#g1)" opacity="0.25"/>
  <path d="M195 300C195 168 300 92 446 92C592 92 710 150 710 282C710 414 615 574 463 574C311 574 195 432 195 300Z" fill="url(#g2)" opacity="0.85"/>

  <!-- Laptop -->
  <g filter="url(#shadow)">
    <rect x="215" y="330" width="470" height="230" rx="26" fill="rgba(255,255,255,0.08)" stroke="rgba(255,255,255,0.14)"/>
    <rect x="245" y="360" width="410" height="140" rx="18" fill="rgba(10,14,28,0.72)" stroke="rgba(255,255,255,0.10)"/>
    <rect x="260" y="380" width="160" height="12" rx="6" fill="#22D3EE" opacity="0.7"/>
    <rect x="260" y="404" width="230" height="12" rx="6" fill="#7C3AED" opacity="0.65"/>
    <rect x="260" y="428" width="190" height="12" rx="6" fill="#F97316" opacity="0.55"/>
    <rect x="260" y="466" width="300" height="10" rx="5" fill="rgba(234,240,255,0.22)"/>
    <rect x="260" y="486" width="260" height="10" rx="5" fill="rgba(234,240,255,0.18)"/>
    <path d="M210 560H690C705 560 718 572 718 588C718 604 705 616 690 616H210C195 616 182 604 182 588C182 572 195 560 210 560Z" fill="rgba(255,255,255,0.06)" stroke="rgba(255,255,255,0.12)"/>
    <rect x="415" y="585" width="70" height="10" rx="5" fill="rgba(234,240,255,0.18)"/>
  </g>

  <!-- Developer -->
  <g filter="url(#shadow)">
    <path d="M545 248C545 299 503 340 452 340C401 340 359 299 359 248C359 197 401 156 452 156C503 156 545 197 545 248Z" fill="rgba(255,255,255,0.10)" stroke="rgba(255,255,255,0.16)"/>
    <path d="M502 241C502 268 480 290 453 290C426 290 404 268 404 241C404 214 426 192 453 192C480 192 502 214 502 241Z" fill="rgba(234,240,255,0.72)"/>
    <path d="M370 515C370 444 404 396 452 396C500 396 534 444 534 515V555H370V515Z" fill="rgba(255,255,255,0.08)" stroke="rgba(255,255,255,0.14)"/>
    <path d="M402 404C410 439 429 456 452 456C475 456 494 439 502 404" stroke="url(#g1)" stroke-width="10" stroke-linecap="round" opacity="0.85"/>
  </g>

  <!-- Floating code tags -->
  <g opacity="0.9">
    <rect x="110" y="160" width="120" height="46" rx="16" fill="rgba(255,255,255,0.07)" stroke="rgba(255,255,255,0.14)"/>
    <text x="132" y="190" fill="rgba(234,240,255,0.88)" font-family="Inter, Arial" font-size="20">&lt;/&gt;</text>
    <rect x="690" y="176" width="150" height="46" rx="16" fill="rgba(255,255,255,0.07)" stroke="rgba(255,255,255,0.14)"/>
    <text x="712" y="205" fill="rgba(234,240,255,0.88)" font-family="Inter, Arial" font-size="20">Laravel</text>
    <rect x="660" y="520" width="170" height="46" rx="16" fill="rgba(255,255,255,0.07)" stroke="rgba(255,255,255,0.14)"/>
    <text x="682" y="550" fill="rgba(234,240,255,0.88)" font-family="Inter, Arial" font-size="20">MySQL</text>
  </g>
</svg>
